<?xml version="1.0" encoding="UTF-8" standalone="no"?><svg xmlns="http://www.w3.org/2000/svg" xmlns:xlink="http://www.w3.org/1999/xlink" contentScriptType="application/ecmascript" contentStyleType="text/css" height="722px" preserveAspectRatio="none" style="width:481px;height:722px;" version="1.1" viewBox="0 0 481 722" width="481px" zoomAndPan="magnify"><defs><filter height="300%" id="f8vs9pgesizbv" width="300%" x="-1" y="-1"><feGaussianBlur result="blurOut" stdDeviation="2.0"/><feColorMatrix in="blurOut" result="blurOut2" type="matrix" values="0 0 0 0 0 0 0 0 0 0 0 0 0 0 0 0 0 0 .4 0"/><feOffset dx="4.0" dy="4.0" in="blurOut2" result="blurOut3"/><feBlend in="SourceGraphic" in2="blurOut3" mode="normal"/></filter></defs><g><!--class Page--><rect fill="#FEFECE" filter="url(#f8vs9pgesizbv)" height="124.8281" id="Page" style="stroke: #A80036; stroke-width: 1.5;" width="118" x="6" y="190"/><ellipse cx="45.3" cy="206" fill="#ADD1B2" rx="11" ry="11" style="stroke: #A80036; stroke-width: 1.0;"/><path d="M48.2688,211.6406 Q47.6906,211.9375 47.05,212.0781 Q46.4094,212.2344 45.7063,212.2344 Q43.2063,212.2344 41.8781,210.5938 Q40.5656,208.9375 40.5656,205.8125 Q40.5656,202.6875 41.8781,201.0313 Q43.2063,199.375 45.7063,199.375 Q46.4094,199.375 47.05,199.5313 Q47.7063,199.6875 48.2688,199.9844 L48.2688,202.7031 Q47.6438,202.125 47.05,201.8594 Q46.4563,201.5781 45.8313,201.5781 Q44.4875,201.5781 43.8,202.6563 Q43.1125,203.7188 43.1125,205.8125 Q43.1125,207.9063 43.8,208.9844 Q44.4875,210.0469 45.8313,210.0469 Q46.4563,210.0469 47.05,209.7813 Q47.6438,209.5 48.2688,208.9219 L48.2688,211.6406 Z "/><text fill="#000000" font-family="sans-serif" font-size="12" lengthAdjust="spacingAndGlyphs" textLength="32" x="64.7" y="210.1543">Page</text><line style="stroke: #A80036; stroke-width: 1.5;" x1="7" x2="123" y1="222" y2="222"/><text fill="#000000" font-family="sans-serif" font-size="11" lengthAdjust="spacingAndGlyphs" textLength="64" x="12" y="236.2104">id: ObjectId</text><text fill="#000000" font-family="sans-serif" font-size="11" lengthAdjust="spacingAndGlyphs" textLength="62" x="12" y="249.0151">title: string</text><text fill="#000000" font-family="sans-serif" font-size="11" lengthAdjust="spacingAndGlyphs" textLength="86" x="12" y="261.8198">subTitle: string</text><text fill="#000000" font-family="sans-serif" font-size="11" lengthAdjust="spacingAndGlyphs" textLength="65" x="12" y="274.6245">type: string</text><text fill="#000000" font-family="sans-serif" font-size="11" lengthAdjust="spacingAndGlyphs" textLength="56" x="12" y="287.4292">url: string</text><text fill="#000000" font-family="sans-serif" font-size="11" lengthAdjust="spacingAndGlyphs" textLength="106" x="12" y="300.2339">domainId: ObjectId</text><line style="stroke: #A80036; stroke-width: 1.5;" x1="7" x2="123" y1="306.8281" y2="306.8281"/><!--class Domain--><rect fill="#FEFECE" filter="url(#f8vs9pgesizbv)" height="86.4141" id="Domain" style="stroke: #A80036; stroke-width: 1.5;" width="85" x="195.5" y="8"/><ellipse cx="213.2" cy="24" fill="#ADD1B2" rx="11" ry="11" style="stroke: #A80036; stroke-width: 1.0;"/><path d="M216.1688,29.6406 Q215.5906,29.9375 214.95,30.0781 Q214.3094,30.2344 213.6063,30.2344 Q211.1063,30.2344 209.7781,28.5938 Q208.4656,26.9375 208.4656,23.8125 Q208.4656,20.6875 209.7781,19.0313 Q211.1063,17.375 213.6063,17.375 Q214.3094,17.375 214.95,17.5313 Q215.6063,17.6875 216.1688,17.9844 L216.1688,20.7031 Q215.5438,20.125 214.95,19.8594 Q214.3563,19.5781 213.7313,19.5781 Q212.3875,19.5781 211.7,20.6563 Q211.0125,21.7188 211.0125,23.8125 Q211.0125,25.9063 211.7,26.9844 Q212.3875,28.0469 213.7313,28.0469 Q214.3563,28.0469 214.95,27.7813 Q215.5438,27.5 216.1688,26.9219 L216.1688,29.6406 Z "/><text fill="#000000" font-family="sans-serif" font-size="12" lengthAdjust="spacingAndGlyphs" textLength="47" x="227.8" y="28.1543">Domain</text><line style="stroke: #A80036; stroke-width: 1.5;" x1="196.5" x2="279.5" y1="40" y2="40"/><text fill="#000000" font-family="sans-serif" font-size="11" lengthAdjust="spacingAndGlyphs" textLength="64" x="201.5" y="54.2104">id: ObjectId</text><text fill="#000000" font-family="sans-serif" font-size="11" lengthAdjust="spacingAndGlyphs" textLength="73" x="201.5" y="67.0151">name: string</text><text fill="#000000" font-family="sans-serif" font-size="11" lengthAdjust="spacingAndGlyphs" textLength="56" x="201.5" y="79.8198">url: string</text><line style="stroke: #A80036; stroke-width: 1.5;" x1="196.5" x2="279.5" y1="86.4141" y2="86.4141"/><!--class Entries--><rect fill="#FEFECE" filter="url(#f8vs9pgesizbv)" height="124.8281" id="Entries" style="stroke: #A80036; stroke-width: 1.5;" width="118" x="179" y="587"/><ellipse cx="212.9" cy="603" fill="#ADD1B2" rx="11" ry="11" style="stroke: #A80036; stroke-width: 1.0;"/><path d="M215.8688,608.6406 Q215.2906,608.9375 214.65,609.0781 Q214.0094,609.2344 213.3063,609.2344 Q210.8063,609.2344 209.4781,607.5938 Q208.1656,605.9375 208.1656,602.8125 Q208.1656,599.6875 209.4781,598.0313 Q210.8063,596.375 213.3063,596.375 Q214.0094,596.375 214.65,596.5313 Q215.3063,596.6875 215.8688,596.9844 L215.8688,599.7031 Q215.2438,599.125 214.65,598.8594 Q214.0563,598.5781 213.4313,598.5781 Q212.0875,598.5781 211.4,599.6563 Q210.7125,600.7188 210.7125,602.8125 Q210.7125,604.9063 211.4,605.9844 Q212.0875,607.0469 213.4313,607.0469 Q214.0563,607.0469 214.65,606.7813 Q215.2438,606.5 215.8688,605.9219 L215.8688,608.6406 Z "/><text fill="#000000" font-family="sans-serif" font-size="12" lengthAdjust="spacingAndGlyphs" textLength="44" x="231.1" y="607.1543">Entries</text><line style="stroke: #A80036; stroke-width: 1.5;" x1="180" x2="296" y1="619" y2="619"/><text fill="#000000" font-family="sans-serif" font-size="11" lengthAdjust="spacingAndGlyphs" textLength="64" x="185" y="633.2104">id: ObjectId</text><text fill="#000000" font-family="sans-serif" font-size="11" lengthAdjust="spacingAndGlyphs" textLength="62" x="185" y="646.0151">title: string</text><text fill="#000000" font-family="sans-serif" font-size="11" lengthAdjust="spacingAndGlyphs" textLength="86" x="185" y="658.8198">subTitle: string</text><text fill="#000000" font-family="sans-serif" font-size="11" lengthAdjust="spacingAndGlyphs" textLength="65" x="185" y="671.6245">type: string</text><text fill="#000000" font-family="sans-serif" font-size="11" lengthAdjust="spacingAndGlyphs" textLength="56" x="185" y="684.4292">url: string</text><text fill="#000000" font-family="sans-serif" font-size="11" lengthAdjust="spacingAndGlyphs" textLength="106" x="185" y="697.2339">domainId: ObjectId</text><line style="stroke: #A80036; stroke-width: 1.5;" x1="180" x2="296" y1="703.8281" y2="703.8281"/><!--class SubCategories--><rect fill="#FEFECE" filter="url(#f8vs9pgesizbv)" height="99.2188" id="SubCategories" style="stroke: #A80036; stroke-width: 1.5;" width="124" x="176" y="411"/><ellipse cx="191" cy="427" fill="#ADD1B2" rx="11" ry="11" style="stroke: #A80036; stroke-width: 1.0;"/><path d="M193.9688,432.6406 Q193.3906,432.9375 192.75,433.0781 Q192.1094,433.2344 191.4063,433.2344 Q188.9063,433.2344 187.5781,431.5938 Q186.2656,429.9375 186.2656,426.8125 Q186.2656,423.6875 187.5781,422.0313 Q188.9063,420.375 191.4063,420.375 Q192.1094,420.375 192.75,420.5313 Q193.4063,420.6875 193.9688,420.9844 L193.9688,423.7031 Q193.3438,423.125 192.75,422.8594 Q192.1563,422.5781 191.5313,422.5781 Q190.1875,422.5781 189.5,423.6563 Q188.8125,424.7188 188.8125,426.8125 Q188.8125,428.9063 189.5,429.9844 Q190.1875,431.0469 191.5313,431.0469 Q192.1563,431.0469 192.75,430.7813 Q193.3438,430.5 193.9688,429.9219 L193.9688,432.6406 Z "/><text fill="#000000" font-family="sans-serif" font-size="12" lengthAdjust="spacingAndGlyphs" textLength="92" x="205" y="431.1543">SubCategories</text><line style="stroke: #A80036; stroke-width: 1.5;" x1="177" x2="299" y1="443" y2="443"/><text fill="#000000" font-family="sans-serif" font-size="11" lengthAdjust="spacingAndGlyphs" textLength="64" x="182" y="457.2104">id: ObjectId</text><text fill="#000000" font-family="sans-serif" font-size="11" lengthAdjust="spacingAndGlyphs" textLength="62" x="182" y="470.0151">title: string</text><text fill="#000000" font-family="sans-serif" font-size="11" lengthAdjust="spacingAndGlyphs" textLength="102" x="182" y="482.8198">entries: ObjectId[]</text><text fill="#000000" font-family="sans-serif" font-size="11" lengthAdjust="spacingAndGlyphs" textLength="106" x="182" y="495.6245">domainId: ObjectId</text><line style="stroke: #A80036; stroke-width: 1.5;" x1="177" x2="299" y1="502.2188" y2="502.2188"/><!--class Categories--><rect fill="#FEFECE" filter="url(#f8vs9pgesizbv)" height="99.2188" id="Categories" style="stroke: #A80036; stroke-width: 1.5;" width="157" x="159.5" y="203"/><ellipse cx="200.15" cy="219" fill="#ADD1B2" rx="11" ry="11" style="stroke: #A80036; stroke-width: 1.0;"/><path d="M203.1188,224.6406 Q202.5406,224.9375 201.9,225.0781 Q201.2594,225.2344 200.5563,225.2344 Q198.0563,225.2344 196.7281,223.5938 Q195.4156,221.9375 195.4156,218.8125 Q195.4156,215.6875 196.7281,214.0313 Q198.0563,212.375 200.5563,212.375 Q201.2594,212.375 201.9,212.5313 Q202.5563,212.6875 203.1188,212.9844 L203.1188,215.7031 Q202.4938,215.125 201.9,214.8594 Q201.3063,214.5781 200.6813,214.5781 Q199.3375,214.5781 198.65,215.6563 Q197.9625,216.7188 197.9625,218.8125 Q197.9625,220.9063 198.65,221.9844 Q199.3375,223.0469 200.6813,223.0469 Q201.3063,223.0469 201.9,222.7813 Q202.4938,222.5 203.1188,221.9219 L203.1188,224.6406 Z "/><text fill="#000000" font-family="sans-serif" font-size="12" lengthAdjust="spacingAndGlyphs" textLength="68" x="219.85" y="223.1543">Categories</text><line style="stroke: #A80036; stroke-width: 1.5;" x1="160.5" x2="315.5" y1="235" y2="235"/><text fill="#000000" font-family="sans-serif" font-size="11" lengthAdjust="spacingAndGlyphs" textLength="64" x="165.5" y="249.2104">id: ObjectId</text><text fill="#000000" font-family="sans-serif" font-size="11" lengthAdjust="spacingAndGlyphs" textLength="62" x="165.5" y="262.0151">title: string</text><text fill="#000000" font-family="sans-serif" font-size="11" lengthAdjust="spacingAndGlyphs" textLength="145" x="165.5" y="274.8198">subCategories: ObjectId[]</text><text fill="#000000" font-family="sans-serif" font-size="11" lengthAdjust="spacingAndGlyphs" textLength="106" x="165.5" y="287.6245">domainId: ObjectId</text><line style="stroke: #A80036; stroke-width: 1.5;" x1="160.5" x2="315.5" y1="294.2188" y2="294.2188"/><!--class Contact--><rect fill="#FEFECE" filter="url(#f8vs9pgesizbv)" height="163.2422" id="Contact" style="stroke: #A80036; stroke-width: 1.5;" width="118" x="352" y="171"/><ellipse cx="383.65" cy="187" fill="#ADD1B2" rx="11" ry="11" style="stroke: #A80036; stroke-width: 1.0;"/><path d="M386.6188,192.6406 Q386.0406,192.9375 385.4,193.0781 Q384.7594,193.2344 384.0563,193.2344 Q381.5563,193.2344 380.2281,191.5938 Q378.9156,189.9375 378.9156,186.8125 Q378.9156,183.6875 380.2281,182.0313 Q381.5563,180.375 384.0563,180.375 Q384.7594,180.375 385.4,180.5313 Q386.0563,180.6875 386.6188,180.9844 L386.6188,183.7031 Q385.9938,183.125 385.4,182.8594 Q384.8063,182.5781 384.1813,182.5781 Q382.8375,182.5781 382.15,183.6563 Q381.4625,184.7188 381.4625,186.8125 Q381.4625,188.9063 382.15,189.9844 Q382.8375,191.0469 384.1813,191.0469 Q384.8063,191.0469 385.4,190.7813 Q385.9938,190.5 386.6188,189.9219 L386.6188,192.6406 Z "/><text fill="#000000" font-family="sans-serif" font-size="12" lengthAdjust="spacingAndGlyphs" textLength="49" x="401.35" y="191.1543">Contact</text><line style="stroke: #A80036; stroke-width: 1.5;" x1="353" x2="469" y1="203" y2="203"/><text fill="#000000" font-family="sans-serif" font-size="11" lengthAdjust="spacingAndGlyphs" textLength="64" x="358" y="217.2104">id: ObjectId</text><text fill="#000000" font-family="sans-serif" font-size="11" lengthAdjust="spacingAndGlyphs" textLength="73" x="358" y="230.0151">name: string</text><text fill="#000000" font-family="sans-serif" font-size="11" lengthAdjust="spacingAndGlyphs" textLength="88" x="358" y="242.8198">address: string</text><text fill="#000000" font-family="sans-serif" font-size="11" lengthAdjust="spacingAndGlyphs" textLength="76" x="358" y="255.6245">phone: string</text><text fill="#000000" font-family="sans-serif" font-size="11" lengthAdjust="spacingAndGlyphs" textLength="83" x="358" y="268.4292">order: number</text><text fill="#000000" font-family="sans-serif" font-size="11" lengthAdjust="spacingAndGlyphs" textLength="58" x="358" y="281.2339">job: string</text><text fill="#000000" font-family="sans-serif" font-size="11" lengthAdjust="spacingAndGlyphs" textLength="80" x="358" y="294.0386">picture: string</text><text fill="#000000" font-family="sans-serif" font-size="11" lengthAdjust="spacingAndGlyphs" textLength="72" x="358" y="306.8433">email: string</text><text fill="#000000" font-family="sans-serif" font-size="11" lengthAdjust="spacingAndGlyphs" textLength="106" x="358" y="319.6479">domainId: ObjectId</text><line style="stroke: #A80036; stroke-width: 1.5;" x1="353" x2="469" y1="326.2422" y2="326.2422"/><!--link Domain to Page--><path d="M192.1829,104.365 C169.6416,130.6198 142.3272,162.4339 118.7983,189.839 " fill="none" id="Domain-Page" style="stroke: #A80036; stroke-width: 1.0;"/><polygon fill="#A80036" points="200.8872,94.2268,193.9438,96.1735,193.0702,103.3315,200.0136,101.3848,200.8872,94.2268" style="stroke: #A80036; stroke-width: 1.0;"/><text fill="#000000" font-family="sans-serif" font-size="13" lengthAdjust="spacingAndGlyphs" textLength="23" x="174" y="137.0669">has</text><text fill="#000000" font-family="sans-serif" font-size="13" lengthAdjust="spacingAndGlyphs" textLength="8" x="186.3348" y="114.3559">1</text><text fill="#000000" font-family="sans-serif" font-size="13" lengthAdjust="spacingAndGlyphs" textLength="36" x="86.9375" y="178.8111">many</text><!--link Domain to Contact--><path d="M283.7799,104.3217 C304.6336,128.6108 329.5783,157.6649 351.8328,183.5856 " fill="none" id="Domain-Contact" style="stroke: #A80036; stroke-width: 1.0;"/><polygon fill="#A80036" points="275.1128,94.2268,275.9864,101.3848,282.9298,103.3315,282.0562,96.1735,275.1128,94.2268" style="stroke: #A80036; stroke-width: 1.0;"/><text fill="#000000" font-family="sans-serif" font-size="13" lengthAdjust="spacingAndGlyphs" textLength="23" x="316" y="137.0669">has</text><text fill="#000000" font-family="sans-serif" font-size="13" lengthAdjust="spacingAndGlyphs" textLength="8" x="272.3902" y="114.3559">1</text><text fill="#000000" font-family="sans-serif" font-size="13" lengthAdjust="spacingAndGlyphs" textLength="36" x="307.8749" y="172.7666">many</text><!--link Domain to Categories--><path d="M238,107.5054 C238,137.5181 238,174.0674 238,202.9616 " fill="none" id="Domain-Categories" style="stroke: #A80036; stroke-width: 1.0;"/><polygon fill="#A80036" points="238,94.2268,234,100.2268,238,106.2268,242,100.2268,238,94.2268" style="stroke: #A80036; stroke-width: 1.0;"/><text fill="#000000" font-family="sans-serif" font-size="13" lengthAdjust="spacingAndGlyphs" textLength="23" x="239" y="137.0669">has</text><text fill="#000000" font-family="sans-serif" font-size="13" lengthAdjust="spacingAndGlyphs" textLength="8" x="229.3625" y="114.3559">1</text><text fill="#000000" font-family="sans-serif" font-size="13" lengthAdjust="spacingAndGlyphs" textLength="36" x="199.4688" y="192.0014">many</text><!--link Categories to SubCategories--><path d="M238,315.2512 C238,345.9142 238,382.2863 238,410.9627 " fill="none" id="Categories-SubCategories" style="stroke: #A80036; stroke-width: 1.0;"/><polygon fill="#A80036" points="238,302.0569,234,308.0569,238,314.0569,242,308.0569,238,302.0569" style="stroke: #A80036; stroke-width: 1.0;"/><text fill="#000000" font-family="sans-serif" font-size="13" lengthAdjust="spacingAndGlyphs" textLength="23" x="239" y="377.0669">has</text><text fill="#000000" font-family="sans-serif" font-size="13" lengthAdjust="spacingAndGlyphs" textLength="8" x="229.4375" y="322.1414">1</text><text fill="#000000" font-family="sans-serif" font-size="13" lengthAdjust="spacingAndGlyphs" textLength="36" x="199.4688" y="400.0027">many</text><!--link SubCategories to Entries--><path d="M238,523.2529 C238,543.7467 238,566.4944 238,586.9717 " fill="none" id="SubCategories-Entries" style="stroke: #A80036; stroke-width: 1.0;"/><polygon fill="#A80036" points="238,510.1575,234,516.1575,238,522.1575,242,516.1575,238,510.1575" style="stroke: #A80036; stroke-width: 1.0;"/><text fill="#000000" font-family="sans-serif" font-size="13" lengthAdjust="spacingAndGlyphs" textLength="23" x="239" y="553.0669">has</text><text fill="#000000" font-family="sans-serif" font-size="13" lengthAdjust="spacingAndGlyphs" textLength="8" x="229.4375" y="530.2561">1</text><text fill="#000000" font-family="sans-serif" font-size="13" lengthAdjust="spacingAndGlyphs" textLength="36" x="199.9188" y="575.9592">many</text><!--
@startuml diagram

class Page {
    id: ObjectId
    title: string
    subTitle: string
    type: string
    url: string
    domainId: ObjectId
}

class Domain {
    id: ObjectId
    name: string
    url: string
}

class Entries {
    id: ObjectId
    title: string
    subTitle: string
    type: string
    url: string
    domainId: ObjectId
}

class SubCategories {
    id: ObjectId
    title: string
    entries: ObjectId[]
    domainId: ObjectId
}

class Categories {
    id: ObjectId
    title: string
    subCategories: ObjectId[]
    domainId: ObjectId
}

class Contact {
    id: ObjectId
    name: string
    address: string
    phone: string
    order: number
    job: string
    picture: string
    email: string
    domainId: ObjectId
}

Domain "1" *- - "many" Page : has
Domain "1" *- - "many" Contact : has
Domain "1" *- - "many" Categories : has
Categories "1" *- - "many" SubCategories : has
SubCategories "1" *- - "many" Entries : has


@enduml

PlantUML version 1.2018.13(Mon Nov 26 11:11:51 CST 2018)
(GPL source distribution)
Java Runtime: OpenJDK Runtime Environment
JVM: OpenJDK 64-Bit Server VM
Java Version: 11.0.23+9-post-Debian-1deb10u1
Operating System: Linux
OS Version: 4.19.0-25-amd64
Default Encoding: UTF-8
Language: en
Country: US
--></g></svg>